<?xml version="1.0" encoding="iso-8859-1"?>
<!-- Generator: Adobe Illustrator 19.0.0, SVG Export Plug-In . SVG Version: 6.00 Build 0)  -->
<svg version="1.1" id="Capa_1" xmlns="http://www.w3.org/2000/svg" xmlns:xlink="http://www.w3.org/1999/xlink" x="0px" y="0px"
	 viewBox="0 0 512.001 512.001" style="enable-background:new 0 0 512.001 512.001;" xml:space="preserve">
<g>
	<g>
		<path style="fill:#00539E;" d="M192.022,335.166l5.528,0.019c2.114,0.007,3.858,1.655,3.98,3.761l7.242,124.991
			c0.122,2.111,1.874,3.761,3.993,3.761l57.285-0.002c1.358,0,2.619-0.682,3.356-1.82c10.127-15.631,80.532-126.23,97.967-153.623
			c1.691-2.657-0.225-6.126-3.379-6.126l-65.69-0.002c-1.706,0-3.224,1.079-3.781,2.688l-7.297,21.085
			c-0.894,2.584,1.02,5.279,3.759,5.294l3.784,0.02c3.081,0.016,4.991,3.352,3.432,6.004c-7.769,13.222-26.549,44.852-37.059,62.54
			c-2.075,3.492-7.438,2.019-7.438-2.04v-61.293c0-2.204,1.79-3.99,3.998-3.991l6.989-0.003c1.785-0.001,3.354-1.182,3.844-2.895
			l6.387-22.32c0.73-2.549-1.189-5.087-3.846-5.087l-77.07-0.007c-1.79,0-3.362,1.186-3.849,2.905l-5.971,21.064
			C187.467,332.631,189.375,335.157,192.022,335.166z"/>
		<path style="fill:#00539E;" d="M416.488,470.702c18.741-2.203,53.904-16.177,62.692-40.167
			c17.294-40.035-32.386-59.594-39.196-63.624c-9.163-5.423-16.403-14.599-7.603-22.441c3.188-2.841,10.386-9.056,29.099-2.429
			l0.071,12.02l30.367,0.038l12.578-44.115c-17.099-3.676-21.698-5.173-39.89-6.106c-14.31-0.734-28.518-0.035-41.913,3.093
			c-23.496,5.488-46.424,18.835-51.703,39.877c-3.125,12.456-0.513,36.834,33.934,55.389c5.328,2.719,10.578,5.626,14.036,9.084
			c6.783,6.783,9.024,22.056-12.19,23.971c-4.379,0.395-18.397,0.464-21.828-0.87l-0.013-15.94l-32.319-0.002l-12.695,45.662
			C353.644,468.495,389.643,474.731,416.488,470.702z"/>
		<path style="fill:#00539E;" d="M180.58,311.031l-9.6,42.47c-0.41,1.82-2.04,3.12-3.92,3.11l-26.38-0.13
			c-2.57-0.01-4.46-2.41-3.87-4.91l1.35-5.71c0.59-2.49-1.29-4.88-3.86-4.91l-8.13-0.06l-2.12-0.02c-0.15,0-0.29,0-0.43,0.02
			c-1.65,0.16-3.03,1.32-3.47,2.94c-3.69,13.75-17.92,70.43-22.57,89.28c-0.62,2.52,1.29,4.94,3.89,4.94h12.85
			c2.65,0,4.56,2.51,3.86,5.06l-6.03,21.7c-0.48,1.73-2.06,2.93-3.86,2.93l-27.75-0.01l-61.03-0.01c-2.7,0-4.62-2.61-3.82-5.18
			l6.75-21.69c0.52-1.67,2.06-2.8,3.81-2.81l12.35-0.04c1.86-0.01,3.47-1.29,3.88-3.09l20.8-89.81c0.58-2.5-1.32-4.89-3.89-4.89
			l-9.38-0.01c-1.71,0-3.23,1.08-3.79,2.69l-3.81,11.03c-0.55,1.62-2.08,2.7-3.79,2.7l-31.12-0.07v-0.41
			c0.76-1.3,9.06-35.03,12.06-47c0.44-1.75,2-2.98,3.81-3.01h0.07l125.41,0.02l27.83,0.01
			C179.25,306.161,181.15,308.531,180.58,311.031z"/>
	</g>
	<g>
		<path style="fill:#E82934;" d="M501.2,241.561l-24.66-2.21l-0.18-0.02l-1.67-0.15c-1.56-0.13-2.76-1.44-2.77-3.01l-0.04-5.59
			c-0.01-1.21-0.72-2.29-1.82-2.77c0,0-0.66-0.29-1.86-0.82c-0.01-0.01-0.02-0.01-0.03-0.021c-11.19-4.91-68.93-29.78-88.7-28.55
			c-6.32,0.53-12.43,1.6-18.05,3.52c-1.71,0.58-7.22,3.46-10.82,5.38c-2,1.06-4.33,1.32-6.51,0.69c-6.27-1.8-20.87-4.99-37.47-1.55
			c-45.54,1.27-78.33-14.36-79.28-14.33c-0.94,0.03-47.52,16.61-80.48,11.89c-7.33-0.56-5.63-1.2-10.25,2.6
			c-11.07,9.09-33.59,24.12-47.83,29.77c-28.89,11.47-58.91,14.48-79.87,2.05c-2.13-1.26-1.77-4.45,0.57-5.24l24.25-8.14
			c0.31-0.1,0.62-0.15,0.92-0.15c1.53,0,2.88,1.24,2.88,2.89c0,1.64,1.36,2.97,3,2.89c7.41-0.35,27.47-2.95,48.67-19.86
			c1.74-1.61,22.95-18.68,27.26-24.18c1.74-2.21,3.67-1.18,9.51-3.44c12.82-4.97,19.26-15.15,26.83-25.75
			c8.18-11.44,12.4-22.34,22.89-29.39c7.16-4.83,16.62-7.91,27.42-6.77c10.5,1.11,41.7,15.96,52.07,17.84
			c22.23,4.04,39.29-2.54,54.99-12c22.52-13.59,38.86-34.26,63.75-41.01c16.09-4.37,21.61-0.75,29.87-0.97
			c0.81-0.02,1.58-0.35,2.13-0.95l10.29-11.09c0.31-0.34,0.87-0.14,0.9,0.32c0.21,3.94,0.89,16.32,1.46,20.05
			c0.1,0.6,0.37,1.15,0.78,1.59c4.01,4.23,29.31,30.91,34.12,35.41c0.43,0.4,0.6,1,0.45,1.57c-0.49,1.81-2,5.69-6.27,7.66
			c-0.16,0.08-0.35,0.11-0.53,0.11h-21.64c-0.68,0-1.23-0.55-1.23-1.23l-0.01-2.92c0-0.54-0.36-1.02-0.88-1.17l-26.16-7.79
			c-3.57,0.74-7.01,2.73-9.38,5.49c-0.12,0.14-0.24,0.29-0.36,0.43c-0.24,0.29-0.46,0.59-0.66,0.9c-0.11,0.16-0.22,0.31-0.31,0.47
			s-0.19,0.31-0.28,0.47c-0.19,0.32-0.35,0.65-0.5,0.99c-0.09,0.16-0.16,0.33-0.22,0.5c-0.08,0.17-0.14,0.34-0.2,0.521
			c-0.07,0.17-0.12,0.35-0.17,0.52c-0.11,0.35-0.2,0.71-0.27,1.07c-0.12,0.54-0.19,1.1-0.21,1.66c-0.05,0.87,0.01,1.75,0.18,2.64
			c0.08,0.45,0.2,0.92,0.34,1.38c0.09,0.29,0.19,0.59,0.31,0.88c0.35,0.89,0.81,1.79,1.4,2.69c3.82,5.84,12.58,11.73,19.37,16.09
			c17.81,11.42,36.65,22.62,53.45,35.42c0,0,37.39,24.32,44.47,38.28C505.25,239.271,503.58,241.771,501.2,241.561z"/>
		<path style="fill:#E82934;" d="M282.641,84.734c2.543-0.061,8.442-0.458,10.922-0.63c0.476-0.033,0.771,0.513,0.48,0.892
			c-2.773,3.615-13.094,14.286-18.041,17.517c-6.182,4.038-25.337,8.819-32.752,8.62c-0.465-0.012-0.727,0.533-0.441,0.902
			l0.003,0.003c0.633,0.816,1.543,1.355,2.557,1.526c3.74,0.631,11.043,2.306,22.229,0.836c7.782-1.023,13.823-3.22,19.567-6.661
			c11.133-6.668,58.659-46.698,86.345-44.353l22.41,3.726l9.348-8.766c-2.522-3.441-12.815-9.401-17.202-11.468
			c-47.345-19.197-77.363,7.509-81.084,11.081c-0.221,0.212-0.229,0.561-0.019,0.785l4.366,4.673c0.28,0.3,0.153,0.782-0.235,0.911
			c-10.094,3.351-24.287,14.47-28.868,19.467C281.892,84.159,282.149,84.746,282.641,84.734z"/>
		<path style="fill:#E82934;" d="M169.973,113.841c0,0,2.572-2.541,4.31-3.554c-18.739-3.999-31.831,0.862-41.083,4.716
			c-14.17,5.903-21.79,5.186-35.433-2.783c-8.894-5.195-19.107-12.197-30.215-15.344c-8.867-2.512-20.194-2.274-27.956,2.697
			l-6.66,4.723c20.568-0.23,37.191,8.952,37.191,8.952l-20.409,7.703c18.675,0,46.641,23.181,63.549,17.517
			c9.414-3.153,18.229-8.816,26.788-13.075C146.585,120.444,169.973,113.841,169.973,113.841z"/>
	</g>
	<g>
		<path style="fill:#004380;" d="M371.37,312.251c-17.43,27.39-87.84,137.99-97.96,153.62c-0.74,1.14-2,1.82-3.36,1.82h-24.43
			c-0.11-1.04-0.13-1.69-0.05-1.82c10.13-15.63,80.53-126.23,97.97-153.62c1.69-2.66-0.23-6.12-3.38-6.12h27.83
			C371.15,306.131,373.06,309.591,371.37,312.251z"/>
		<path style="fill:#004380;" d="M439.984,366.911c-9.163-5.423-16.403-14.6-7.603-22.441c1.65-1.47,4.38-3.841,9.219-4.871
			c-12.91-0.385-18.801,4.088-22.134,7.202c-1.398,1.307-2.32,3.063-2.494,4.968c-0.707,7.759,3.737,13.09,11.861,17.898
			c6.81,4.03,39.808,20.833,22.513,60.868c-8.788,23.99-43.951,37.964-62.692,40.167c-1.999,0.3-4.053,0.537-6.141,0.728
			c11.468,0.85,23.427,0.855,33.974-0.728c18.741-2.203,53.904-16.177,62.692-40.167
			C496.474,390.501,446.794,370.941,439.984,366.911z"/>
		<path style="fill:#004380;" d="M485.365,305.973l-17.532,48.096l24.085,0.03l12.578-44.115
			C496.153,308.19,490.787,306.917,485.365,305.973z"/>
		<path style="fill:#004380;" d="M180.58,311.031l-9.6,42.47c-0.41,1.82-2.04,3.12-3.92,3.11l-26.38-0.13
			c-0.13,0-0.25-0.01-0.38-0.03c1.4-0.38,2.52-1.49,2.85-2.95l9.6-42.47c0.56-2.5-1.34-4.87-3.9-4.87v-0.01l27.83,0.01
			C179.25,306.161,181.15,308.531,180.58,311.031z"/>
		<path style="fill:#004380;" d="M123.62,340.891c-1.65,0.16-3.03,1.32-3.47,2.94c-3.69,13.75-17.92,70.43-22.57,89.28
			c-0.62,2.52,1.29,4.94,3.89,4.94h12.85c2.65,0,4.56,2.51,3.86,5.06l-6.03,21.7c-0.48,1.73-2.06,2.93-3.86,2.93l-27.75-0.01
			c1.76-0.03,3.3-1.21,3.78-2.92l6.02-21.7c0.71-2.55-1.21-5.06-3.85-5.06H73.64c-2.6,0-4.51-2.42-3.89-4.94
			c4.65-18.85,18.88-75.53,22.57-89.28c0.47-1.76,2.07-2.98,3.89-2.96L123.62,340.891z"/>
	</g>
	<g>
		<path style="fill:#C7232C;" d="M390.741,93.489c0.093,0.603,0.362,1.153,0.78,1.594c4.008,4.231,29.303,30.91,34.116,35.412
			c0.428,0.4,0.604,0.999,0.451,1.565c-0.255,0.945-0.793,2.448-1.847,3.951l0.006,2.594c0.001,0.68,0.552,1.23,1.23,1.23h21.646
			c0.181,0,0.364-0.038,0.528-0.114c4.269-1.974,5.781-5.846,6.271-7.661c0.153-0.567-0.023-1.165-0.451-1.565
			c-4.813-4.502-30.108-31.181-34.116-35.412c-0.418-0.441-0.687-0.992-0.78-1.594c-0.573-3.725-1.259-16.104-1.468-20.05
			c-0.024-0.457-0.584-0.658-0.895-0.322l-10.291,11.097c-0.55,0.593-1.32,0.928-2.127,0.949c-4.698,0.123-8.515-0.993-13.893-1.174
			C390.163,87.89,390.465,91.694,390.741,93.489z"/>
		<path style="fill:#C7232C;" d="M501.2,241.561l-24.66-2.21c0.01-0.03-0.05-0.04-0.18-0.02l-1.67-0.15
			c-1.56-0.13-2.76-1.44-2.77-3.01l-0.04-5.59c-0.01-1.21-0.72-2.29-1.82-2.77c0,0-0.66-0.29-1.86-0.82
			c-0.01-0.01-0.02-0.01-0.03-0.021c-13.34-13.19-36.31-28.13-36.31-28.13c-16.8-12.8-35.64-24-53.45-35.42
			c-6.79-4.36-15.56-10.25-19.37-16.09c-6.26-9.57,2.93-10.2,11.63-12l17.15-3.12c-0.12,0.14-0.24,0.29-0.36,0.43
			c-0.23,0.29-0.45,0.59-0.66,0.9c-0.11,0.15-0.21,0.31-0.31,0.47c-0.09,0.16-0.19,0.31-0.28,0.47c-0.18,0.32-0.35,0.65-0.5,0.99
			c-0.08,0.16-0.15,0.33-0.22,0.5s-0.13,0.34-0.2,0.521c-0.06,0.17-0.11,0.34-0.17,0.52c-0.1,0.35-0.19,0.71-0.27,1.07
			c-0.11,0.54-0.18,1.1-0.21,1.66c-0.04,0.86,0.01,1.74,0.18,2.64c0.08,0.45,0.2,0.92,0.34,1.38c0.09,0.29,0.2,0.59,0.31,0.88
			c0.35,0.89,0.81,1.79,1.4,2.69c3.82,5.84,12.58,11.73,19.37,16.09c17.81,11.42,36.65,22.62,53.45,35.42
			c0,0,37.39,24.32,44.47,38.28C505.25,239.271,503.58,241.771,501.2,241.561z"/>
	</g>
</g>
<path d="M378.082,304.574c-2.021-3.68-5.885-5.966-10.086-5.966l-65.691-0.001c-4.9,0-9.268,3.109-10.868,7.736l-7.296,21.086
	c-1.209,3.491-0.656,7.377,1.48,10.393c1.711,2.416,4.284,4.062,7.141,4.632c-7.007,11.879-18.453,31.173-27.554,46.497v-45.036
	l3.486-0.002c5.106,0,9.652-3.427,11.056-8.332l6.387-22.32c1-3.497,0.318-7.169-1.872-10.075c-2.192-2.908-5.54-4.576-9.184-4.576
	l-77.071-0.007c-4.719,0-8.948,2.924-10.675,7.237c-0.413-1.019-0.96-1.991-1.666-2.875c-2.193-2.745-5.468-4.32-8.983-4.321
	l-153.242-0.033c-0.002,0-0.004,0-0.006,0c-5.283,0-9.869,3.573-11.151,8.69c-0.578,2.304-1.352,5.41-2.23,8.937
	c-2.952,11.859-8.408,33.775-9.455,36.961c-0.393,0.924-0.597,1.92-0.597,2.931v0.408c0,4.136,3.349,7.491,7.484,7.5l31.117,0.064
	c0.01,0,0.018,0,0.027,0c4.904,0,9.271-3.109,10.87-7.745l2.991-8.67l2.483,0.003l-19.174,82.809l-9.583,0.032
	c-5.048,0.017-9.445,3.265-10.942,8.079l-6.752,21.696c-1.08,3.472-0.438,7.293,1.718,10.221c2.158,2.932,5.621,4.682,9.261,4.682
	l88.785,0.021c0.002,0,0.004,0,0.006,0c5.149,0,9.706-3.463,11.08-8.419l6.027-21.71c0.969-3.488,0.268-7.141-1.924-10.024
	c-2.193-2.885-5.531-4.54-9.157-4.54h-8.378c5.284-21.309,16.66-66.544,20.757-82.16l3.146,0.025l-0.337,1.424
	c-0.812,3.428-0.028,6.981,2.15,9.749c2.181,2.772,5.455,4.371,8.983,4.389l26.38,0.131c0.02,0,0.039,0,0.059,0
	c5.332,0,10.044-3.761,11.217-8.959l4.033-17.841c0.166,0.261,0.328,0.524,0.517,0.775c2.183,2.899,5.517,4.568,9.148,4.58
	l2.237,0.008l7.051,121.699c0.351,6.072,5.394,10.828,11.481,10.828l57.286-0.002c3.918,0,7.526-1.961,9.65-5.241
	c9.984-15.409,77.535-121.523,98.001-153.678C379.953,312.726,380.098,308.248,378.082,304.574z M164.29,349.08l-19.165-0.096
	l0.333-1.407c0.811-3.42,0.031-6.968-2.138-9.734c-2.171-2.771-5.436-4.376-8.957-4.405l-10.254-0.085c-0.031,0-0.063,0-0.094,0
	c-5.2,0-9.76,3.491-11.109,8.521c-3.766,14.049-18.303,71.983-22.604,89.426c-0.852,3.448-0.084,7.03,2.105,9.826
	c2.195,2.803,5.498,4.41,9.062,4.41h8.245l-4.079,14.691l-81.37-0.02l4.571-14.687l9.789-0.033c5.364-0.02,9.955-3.68,11.163-8.902
	l20.796-89.811c0.794-3.429-0.006-6.976-2.194-9.733c-2.191-2.761-5.471-4.347-8.999-4.351l-9.378-0.009c-0.005,0-0.009,0-0.014,0
	c-4.903,0-9.272,3.11-10.871,7.745l-2.99,8.667l-18.876-0.039c1.483-5.732,3.756-14.763,7.349-29.195
	c0.572-2.297,1.1-4.416,1.558-6.249l146.132,0.031L164.29,349.08z M268.149,460.182l-52.08,0.002l-7.05-121.688
	c-0.351-6.052-5.377-10.808-11.441-10.827l-0.912-0.003l3.986-14.063l69.781,0.007l-4.379,15.303l-4.353,0.002
	c-3.068,0.001-5.953,1.195-8.124,3.362c-2.175,2.172-3.372,5.06-3.371,8.129v61.296c0,5.24,3.398,9.695,8.454,11.083
	c5.055,1.388,10.253-0.705,12.932-5.212c10.535-17.732,29.362-49.44,37.077-62.573c2.074-3.529,2.105-7.932,0.083-11.49
	c-1.847-3.246-5.172-5.385-8.852-5.757l4.896-14.146l56.814,0.001C338.675,349.643,280.369,441.221,268.149,460.182z"/>
<path d="M510.931,306.105c-1.068-1.779-2.826-3.036-4.855-3.472c-2.337-0.503-4.439-0.965-6.375-1.39
	c-12.248-2.689-18.396-4.038-34.707-4.874c-16.534-0.85-30.925,0.226-44.003,3.28c-30.526,7.131-51.936,24.087-57.272,45.357
	c-4.651,18.542,2.797,45.043,37.652,63.819c0.049,0.026,0.099,0.053,0.147,0.078c4.705,2.4,9.432,4.995,12.142,7.705
	c1.971,1.972,3.023,5.098,2.345,6.969c-0.783,2.16-4.485,3.741-9.903,4.231c-3.096,0.279-9.193,0.288-13.66,0.066l-0.008-9.413
	c-0.003-4.14-3.36-7.494-7.5-7.494l-32.319-0.002c-3.368,0-6.323,2.246-7.226,5.491l-12.696,45.664
	c-1.082,3.89,1.11,7.939,4.96,9.158c9.836,3.118,34.865,8.222,59.469,8.222c6.94,0,13.845-0.406,20.367-1.377
	c17.872-2.142,57.891-15.857,68.664-44.821c7.701-17.999,4.673-35.25-8.763-49.903c-10.258-11.187-24.134-18.167-30.802-21.521
	c-1.192-0.6-2.318-1.165-2.78-1.439c-5.536-3.276-7.756-6.642-7.899-8.104c-0.072-0.744,0.758-1.653,1.467-2.285
	c1.968-1.754,5.806-5.172,16.642-2.47l0.038,6.506c0.024,4.121,3.369,7.451,7.49,7.456l30.367,0.038c0.004,0,0.007,0,0.01,0
	c3.35,0,6.294-2.222,7.213-5.444l12.578-44.117C512.281,310.026,511.998,307.884,510.931,306.105z M486.263,346.575l-17.252-0.021
	l-0.026-4.573c-0.019-3.161-2.017-5.971-4.996-7.026c-20.669-7.322-30.784-1.279-36.593,3.899
	c-5.984,5.332-6.793,11.064-6.417,14.933c0.947,9.761,9.923,16.447,15.19,19.563c0.903,0.535,2.067,1.12,3.679,1.931
	c21.048,10.587,43.758,26.096,32.453,52.266c-0.057,0.13-0.108,0.262-0.157,0.395c-7.063,19.281-37.907,33.11-56.527,35.3
	c-0.079,0.009-0.158,0.02-0.237,0.031c-21.831,3.273-50.314-0.645-66.213-4.405l9.148-32.9l19.125,0.002l0.007,8.447
	c0.003,3.092,1.901,5.864,4.782,6.985c5.967,2.319,23.12,1.538,25.221,1.35c15.797-1.427,20.977-9.421,22.658-14.059
	c3.096-8.541-0.702-17.548-5.839-22.687c-3.937-3.936-9.187-7.016-15.856-10.422c-35.139-18.962-31.276-42.412-30.144-46.923
	c4.642-18.502,26.875-29.901,46.135-34.399c11.69-2.731,24.714-3.683,39.824-2.907c14.486,0.742,19.697,1.792,30.871,4.24
	L486.263,346.575z"/>
<path d="M5.079,244.868c10.263,6.089,22.68,9.128,36.63,9.127c15.087,0,31.968-3.556,49.841-10.653
	c15.341-6.091,38.79-21.887,49.819-30.948c0.515-0.424,0.955-0.794,1.341-1.118c0.042-0.036,0.085-0.072,0.129-0.109
	c0.142,0.014,0.285,0.027,0.425,0.041c0.757,0.073,1.668,0.161,2.783,0.248c14.05,1.969,39.45,1.539,81.046-11.439
	c2.358,0.922,6.307,2.437,11.604,4.139c3.939,1.264,8.167-0.903,9.435-4.847c1.267-3.943-0.903-8.167-4.847-9.435
	c-5.355-1.72-9.254-3.249-11.349-4.07c-2.179-0.855-3.186-1.234-4.839-1.189c-1.131,0.037-1.703,0.217-4.113,0.971
	c-39.383,12.33-62.556,12.78-75.057,10.988c-0.165-0.023-0.33-0.042-0.496-0.055c-1.105-0.084-1.993-0.17-2.723-0.241
	c-5.577-0.536-7.538,0.053-11.66,3.525c-0.345,0.291-0.74,0.624-1.201,1.003c-10.013,8.225-32.094,23.142-45.832,28.597
	c-24.032,9.541-46.185,11.94-62.78,7.072l8.568-2.879c0.416,0.62,0.899,1.196,1.445,1.716c2.042,1.946,4.815,2.981,7.64,2.853
	c6.743-0.319,24.554-2.44,44.252-15.192c3.478-2.251,4.472-6.895,2.221-10.371c-2.251-3.477-6.896-4.473-10.371-2.221
	c-13.779,8.919-26.199,11.666-33.199,12.495c-0.74-1.382-1.791-2.599-3.095-3.536c-2.705-1.943-6.205-2.471-9.36-1.409
	l-24.251,8.146c-3.841,1.29-6.6,4.732-7.028,8.768C-0.369,238.868,1.602,242.804,5.079,244.868z"/>
<path d="M152.887,143.601c-1.927,3.101-3.919,6.308-6.185,9.481c-0.581,0.813-1.155,1.624-1.727,2.43
	c-6.425,9.071-11.973,16.904-21.713,20.681c-1.933,0.75-3.22,1.01-4.464,1.261c-2.205,0.445-5.538,1.117-8.233,4.548
	c-0.416,0.529-1.924,2.243-6.91,6.691c-3.092,2.757-3.363,7.498-0.606,10.589c1.481,1.662,3.536,2.509,5.601,2.509
	c1.775,0,3.559-0.627,4.988-1.902c4.6-4.101,6.777-6.341,7.957-7.696c0.059-0.012,0.116-0.023,0.172-0.035
	c1.509-0.305,3.79-0.765,6.921-1.98c13.946-5.409,21.36-15.874,28.529-25.995c0.56-0.79,1.123-1.585,1.692-2.383
	c2.546-3.566,4.668-6.981,6.72-10.283c4.571-7.359,8.182-13.17,14.247-17.252c4.631-3.116,12.286-6.6,22.448-5.53
	c4.655,0.492,16.828,5.281,26.61,9.129c10.418,4.098,19.415,7.637,24.908,8.635c26.38,4.784,46.032-4.412,60.205-12.963
	c8.687-5.24,16.385-11.392,23.83-17.34c12.218-9.763,23.757-18.984,38.009-22.85c9.67-2.622,14.53-1.989,19.675-1.317
	c2.605,0.34,5.306,0.7,8.438,0.608c2.463-0.065,4.843-1.007,6.674-2.614c0.163,1.903,0.33,3.516,0.494,4.582
	c0.325,2.117,1.275,4.058,2.749,5.613c5.738,6.058,22.584,23.808,30.761,32.095h-13.61c-0.996-2.367-3.012-4.257-5.558-5.013
	l-26.165-7.793c-1.188-0.355-2.448-0.408-3.66-0.157c-7.587,1.57-14.292,6.923-17.083,13.636
	c-2.519,6.058-1.811,12.601,1.994,18.426c4.384,6.709,12.974,12.758,21.603,18.295c4.185,2.686,8.426,5.359,12.685,8.043
	c4.427,2.789,9.004,5.673,13.473,8.547c3.483,2.238,8.124,1.232,10.365-2.252c2.24-3.484,1.231-8.125-2.252-10.366
	c-4.527-2.911-9.134-5.814-13.589-8.621c-4.224-2.661-8.43-5.312-12.58-7.976c-4.164-2.672-13.914-8.929-17.147-13.874
	c-1.385-2.12-1.103-3.499-0.701-4.463c0.726-1.746,2.589-3.374,4.722-4.234l19.77,5.889c0.84,3.943,4.352,6.913,8.539,6.913h21.646
	c1.27,0,2.544-0.28,3.677-0.807c5.072-2.346,8.85-6.907,10.365-12.52c0.873-3.245-0.111-6.69-2.57-8.991
	c-3.467-3.242-19.583-20.099-32.773-34.016c-0.338-3.187-0.797-9.875-1.225-17.948c-0.165-3.227-2.234-6.023-5.27-7.124
	c-3.04-1.105-6.419-0.283-8.614,2.085l-8.92,9.619c-1.365-0.076-2.758-0.258-4.296-0.458c-5.782-0.757-12.981-1.694-25.544,1.715
	c-17.256,4.682-30.57,15.32-43.445,25.608c-7.066,5.646-14.373,11.485-22.215,16.215c-12.654,7.634-28.463,14.915-49.777,11.048
	c-4.047-0.735-13.636-4.507-22.096-7.835c-12.263-4.824-23.847-9.381-30.524-10.086c-14.643-1.558-25.703,3.496-32.4,8.002
	C162.767,127.698,157.967,135.423,152.887,143.601z"/>
<path d="M453.411,194.729c-2.259,3.472-1.275,8.117,2.197,10.377c10.604,6.899,26.974,18.855,36.029,28.045l-12.244-1.095
	l-0.011-1.554c-0.03-4.154-2.504-7.916-6.252-9.561c-7.201-3.225-71.013-31.444-94.122-30.03c-0.056,0.003-0.111,0.007-0.167,0.012
	c-7.504,0.632-13.992,1.906-19.835,3.896c-0.771,0.263-2.576,0.878-11.932,5.857c-0.291,0.155-0.612,0.191-0.903,0.11
	c-7.588-2.189-22.852-5.302-40.4-1.824c-10.447,0.252-21.09-0.403-31.651-1.95c-4.086-0.595-7.906,2.235-8.508,6.334
	c-0.601,4.099,2.235,7.907,6.334,8.508c11.631,1.704,23.368,2.404,34.881,2.086c0.441-0.013,0.882-0.063,1.314-0.153
	c15.214-3.153,28.757-0.063,33.87,1.412c4.061,1.172,8.36,0.715,12.111-1.281c6.36-3.385,9.121-4.678,9.72-4.899
	c4.647-1.582,9.936-2.609,16.167-3.14c14.321-0.788,57.232,15.611,84.393,27.598l0.02,2.731c0.041,5.459,4.169,9.943,9.603,10.428
	l26.507,2.371c0.314,0.028,0.628,0.042,0.939,0.042c3.469,0,6.744-1.716,8.711-4.619c2.153-3.179,2.411-7.285,0.672-10.714
	c-7.763-15.317-43.066-38.581-47.066-41.184C460.318,190.273,455.671,191.256,453.411,194.729z"/>
<path d="M236.888,116.613c1.787,2.302,4.356,3.838,7.233,4.322c0.334,0.056,0.697,0.121,1.092,0.192
	c2.88,0.516,7.45,1.335,13.641,1.335c2.891,0,6.135-0.179,9.724-0.65c8.436-1.108,15.568-3.544,22.444-7.662
	c2.507-1.502,6.126-4.124,11.135-7.753c16.587-12.018,51.007-36.965,70.447-35.583l22.091,3.672
	c2.301,0.387,4.656-0.328,6.359-1.928l9.349-8.766c2.768-2.594,3.161-6.847,0.919-9.906c-4.605-6.28-19.903-13.747-20.054-13.818
	c-0.125-0.059-0.251-0.114-0.379-0.166c-51.898-21.045-85.441,9.112-89.11,12.633c-2.375,2.292-3.033,5.74-1.931,8.669
	c-9.579,5.285-19.237,13.231-23.149,17.497c-2.189,2.388-2.739,5.836-1.4,8.785c0.639,1.405,1.646,2.563,2.875,3.379
	c-2.445,2.327-4.771,4.363-6.272,5.344c-4.601,3.006-22.194,7.553-28.446,7.402c-3.123-0.08-5.995,1.646-7.395,4.408
	c-1.39,2.744-1.084,6.081,0.774,8.526C236.853,116.568,236.871,116.591,236.888,116.613z M313.459,71.424
	c2.622-0.87,4.595-2.986,5.275-5.662c0.595-2.331,0.124-4.759-1.255-6.678c10.203-7.142,33.981-18.898,67.578-5.36
	c2.672,1.275,6.021,3.205,8.816,5.005l-0.374,0.352l-18.755-3.118c-0.197-0.033-0.396-0.058-0.597-0.075
	c-21.11-1.773-48.756,15.524-74.054,33.521c1.837-2.496,2.079-5.851,0.606-8.589c-0.333-0.618-0.739-1.182-1.206-1.681
	C304.197,75.842,309.358,72.784,313.459,71.424z"/>
<path d="M32.935,111.771c0.028,0,0.057,0,0.085,0c5.499-0.086,10.728,0.639,15.342,1.651l-1.292,0.487
	c-3.39,1.279-5.38,4.799-4.73,8.363c0.65,3.565,3.755,6.154,7.378,6.154c6.664,0,16.216,4.306,25.452,8.469
	c10.879,4.904,22.047,9.939,32.237,9.939c2.832,0,5.589-0.39,8.242-1.278c7.134-2.39,13.669-5.939,19.989-9.372
	c2.695-1.464,5.242-2.847,7.76-4.101c0.418-0.208,0.816-0.454,1.188-0.736c3.719-2.818,18.277-7.727,27.425-10.312
	c1.215-0.343,2.329-0.992,3.229-1.878c0.962-0.946,2.334-2.121,2.819-2.413c2.678-1.56,4.12-4.606,3.631-7.665
	c-0.49-3.06-2.811-5.504-5.841-6.151c-21.972-4.689-37.298,1.697-45.534,5.129c-11.89,4.951-16.999,4.538-28.766-2.336
	c-1.626-0.95-3.297-1.962-5.011-2.999c-7.937-4.805-16.933-10.25-26.944-13.086c-9.527-2.699-23.476-3.172-34.045,3.598
	c-0.1,0.063-0.197,0.129-0.293,0.197l-6.659,4.722c-2.677,1.898-3.809,5.315-2.796,8.435
	C26.807,109.681,29.689,111.771,32.935,111.771z M77.607,113.761c0.154-2.137-0.612-4.197-2.041-5.701
	c4.497,2.223,8.894,4.884,13.205,7.494c1.782,1.079,3.521,2.131,5.212,3.118c11.124,6.499,19.499,8.787,29.178,7.184
	c-4.064,2.128-8.184,4.106-12.276,5.477c-6.63,2.221-18.808-3.271-29.551-8.113c-2.538-1.145-5.098-2.298-7.656-3.392
	C75.921,118.625,77.422,116.345,77.607,113.761z"/>
<g>
</g>
<g>
</g>
<g>
</g>
<g>
</g>
<g>
</g>
<g>
</g>
<g>
</g>
<g>
</g>
<g>
</g>
<g>
</g>
<g>
</g>
<g>
</g>
<g>
</g>
<g>
</g>
<g>
</g>
</svg>
